<?xml version="1.0" encoding="UTF-8"?>
<svg width="159px" height="20px" viewBox="0 0 159 20" version="1.1" xmlns="http://www.w3.org/2000/svg" xmlns:xlink="http://www.w3.org/1999/xlink">
    <defs></defs>
    <g id="Page-1" stroke="none" stroke-width="1" fill="none" fill-rule="evenodd">
        <g id="Home-Page" transform="translate(-60.000000, -35.000000)" fill="#323232">
            <g id="logo" transform="translate(60.000000, 35.000000)">
                <path d="M45.207,2.9311 C45.247,2.7721 45.406,2.6531 45.565,2.6531 L45.883,2.6531 C46.022,2.6531 46.181,2.7511 46.22,2.8701 L50.154,13.8181 L50.253,13.8181 L54.127,2.8701 C54.167,2.7511 54.326,2.6531 54.465,2.6531 L54.783,2.6531 C54.942,2.6531 55.101,2.7721 55.141,2.9311 L57.704,16.2821 C57.763,16.5591 57.644,16.7581 57.346,16.7581 L56.551,16.7581 C56.392,16.7581 56.233,16.6191 56.194,16.4801 L54.425,6.2481 L54.346,6.2481 L50.69,16.7381 C50.651,16.8571 50.472,16.9561 50.353,16.9561 L49.995,16.9561 C49.876,16.9561 49.697,16.8571 49.657,16.7381 L45.962,6.2481 L45.883,6.2481 L44.154,16.4801 C44.134,16.6191 43.956,16.7581 43.797,16.7581 L43.002,16.7581 C42.704,16.7581 42.585,16.5591 42.644,16.2821 L45.207,2.9311 Z" id="Fill-1"></path>
                <path d="M64.6148,10.0629 L59.8258,3.4269 C59.6678,3.1689 59.8258,2.8509 60.1438,2.8509 L61.0778,2.8509 C61.2178,2.8509 61.3368,2.9509 61.3958,3.0299 L65.4088,8.5729 L69.4228,3.0299 C69.4818,2.9509 69.6008,2.8509 69.7398,2.8509 L70.6738,2.8509 C70.9918,2.8509 71.1508,3.1689 70.9918,3.4269 L66.1438,10.0429 L66.1438,16.3799 C66.1438,16.5799 65.9658,16.7579 65.7658,16.7579 L64.9918,16.7579 C64.7728,16.7579 64.6148,16.5799 64.6148,16.3799 L64.6148,10.0629 Z" id="Fill-3"></path>
                <path d="M74.4263,3.0102 C74.4263,2.8112 74.6053,2.6532 74.8043,2.6532 L75.3003,2.6532 L84.2603,13.8182 L84.3003,13.8182 L84.3003,3.2292 C84.3003,3.0302 84.4593,2.8512 84.6773,2.8512 L85.3723,2.8512 C85.5723,2.8512 85.7503,3.0302 85.7503,3.2292 L85.7503,16.5992 C85.7503,16.7972 85.5723,16.9562 85.3723,16.9562 L85.0153,16.9562 L75.8963,5.5732 L75.8763,5.5732 L75.8763,16.3802 C75.8763,16.5792 75.7173,16.7582 75.4993,16.7582 L74.8043,16.7582 C74.6053,16.7582 74.4263,16.5792 74.4263,16.3802 L74.4263,3.0102 Z" id="Fill-5"></path>
                <path d="M95.6802,15.3871 C98.9382,15.3871 101.3022,13.0631 101.3022,9.7841 C101.3022,6.5271 98.9382,4.2021 95.6802,4.2021 L92.7002,4.2021 L92.7002,15.3871 L95.6802,15.3871 Z M91.1902,3.2291 C91.1902,3.0301 91.3492,2.8511 91.5472,2.8511 L95.9972,2.8511 C99.8322,2.8511 102.9712,5.9701 102.9712,9.7841 C102.9712,13.6391 99.8322,16.7581 95.9972,16.7581 L91.5472,16.7581 C91.3492,16.7581 91.1902,16.5791 91.1902,16.3801 L91.1902,3.2291 Z" id="Fill-7"></path>
                <path d="M112.0874,10.2416 C113.7164,10.2416 115.1074,8.9106 115.1074,7.2016 C115.1074,5.5936 113.7164,4.3606 112.0874,4.3606 L108.9284,4.3606 L108.9284,10.2416 L112.0874,10.2416 Z M107.4184,3.2286 C107.4184,3.0296 107.5774,2.8506 107.7964,2.8506 L112.1874,2.8506 C114.6304,2.8506 116.6374,4.8386 116.6374,7.2416 C116.6374,9.7056 114.6304,11.7116 112.2064,11.7116 L108.9284,11.7116 L108.9284,16.3806 C108.9284,16.5796 108.7494,16.7586 108.5514,16.7586 L107.7964,16.7586 C107.5774,16.7586 107.4184,16.5796 107.4184,16.3806 L107.4184,3.2286 Z" id="Fill-9"></path>
                <path d="M120.648,3.2289 C120.648,3.0299 120.807,2.8509 121.026,2.8509 L121.8,2.8509 C121.999,2.8509 122.178,3.0299 122.178,3.2289 L122.178,15.4269 L127.9,15.4269 C128.118,15.4269 128.277,15.6059 128.277,15.8039 L128.277,16.3799 C128.277,16.5799 128.118,16.7579 127.9,16.7579 L121.026,16.7579 C120.807,16.7579 120.648,16.5799 120.648,16.3799 L120.648,3.2289 Z" id="Fill-11"></path>
                <path d="M139.937,12.0297 C138.964,9.8637 138.01,7.6787 137.037,5.5127 L136.877,5.5127 L133.977,12.0297 L139.937,12.0297 Z M130.5,16.2417 L136.541,2.8707 C136.6,2.7517 136.699,2.6527 136.877,2.6527 L137.077,2.6527 C137.255,2.6527 137.355,2.7517 137.415,2.8707 L143.414,16.2417 C143.534,16.4997 143.375,16.7587 143.077,16.7587 L142.282,16.7587 C142.103,16.7587 141.984,16.6387 141.944,16.5397 L140.474,13.2607 L133.421,13.2607 L131.97,16.5397 C131.931,16.6387 131.812,16.7587 131.633,16.7587 L130.838,16.7587 C130.541,16.7587 130.381,16.4997 130.5,16.2417 L130.5,16.2417 Z" id="Fill-13"></path>
                <path d="M146.9683,3.0102 C146.9683,2.8112 147.1473,2.6532 147.3463,2.6532 L147.8423,2.6532 L156.8023,13.8182 L156.8423,13.8182 L156.8423,3.2292 C156.8423,3.0302 157.0013,2.8512 157.2193,2.8512 L157.9143,2.8512 C158.1143,2.8512 158.2923,3.0302 158.2923,3.2292 L158.2923,16.5992 C158.2923,16.7972 158.1143,16.9562 157.9143,16.9562 L157.5573,16.9562 L148.4393,5.5732 L148.4183,5.5732 L148.4183,16.3802 C148.4183,16.5792 148.2593,16.7582 148.0413,16.7582 L147.3463,16.7582 C147.1473,16.7582 146.9683,16.5792 146.9683,16.3802 L146.9683,3.0102 Z" id="Fill-15"></path>
                <path d="M18.347,0.4142 C18.319,0.1932 18.153,0.0002 17.85,0.0002 L17.408,0.0002 C17.159,0.0002 17.021,0.1102 16.938,0.2762 L10.862,13.3122 L10.779,13.3122 L4.704,0.2762 C4.621,0.1102 4.455,0.0002 4.234,0.0002 L3.792,0.0002 C3.488,0.0002 3.323,0.1932 3.295,0.4142 L0.008,18.9732 C-0.047,19.3602 0.174,19.6092 0.533,19.6092 L3.019,19.6092 C3.267,19.6092 3.488,19.3882 3.516,19.1942 L5.118,8.7272 L5.201,8.7272 L10.089,19.5812 C10.172,19.7472 10.31,19.8852 10.559,19.8852 L11.056,19.8852 C11.304,19.8852 11.47,19.7472 11.525,19.5812 L16.358,8.7272 L16.441,8.7272 L18.071,19.1942 C18.126,19.3882 18.347,19.6092 18.596,19.6092 L21.109,19.6092 C21.468,19.6092 21.689,19.3602 21.606,18.9732 L18.347,0.4142 Z" id="Fill-18"></path>
            </g>
        </g>
    </g>
</svg>